<svg width="268" height="264" viewBox="0 0 268 264" fill="none" xmlns="http://www.w3.org/2000/svg">
<path d="M204.8 139.024H268V208.969H73.5C63.9 208.969 66.7967 208.969 22.2654 263.613C28.4 194.613 34.8 194.847 28.4 188.585C22.1333 182.191 17.1333 174.73 13.4 166.203C9.8 157.676 8 148.617 8 139.024C8 129.432 9.8 120.372 13.4 111.846C17.1333 103.319 22.1333 95.9251 28.4 89.6634C34.8 83.2684 42.2667 78.2723 50.8 74.6751C59.3333 70.9448 68.4 69.0796 78 69.0796H187.288C190.379 69.0796 193.296 67.6503 195.19 65.2078L241.406 5.61328L232.485 57.3812C231.431 63.4929 236.138 69.0796 242.339 69.0796H268V121.039H91C85.4 121.039 80.6667 122.637 76.8 125.835C72.9333 129.032 71 133.429 71 139.024C71 144.62 72.9333 149.017 76.8 152.214C80.6667 155.412 85.4 157.01 91 157.01H204.8V139.024Z" fill="white"/>
<path d="M234.898 0.698242L225.978 52.4658C224.977 58.2717 229.447 63.5788 235.339 63.5791H261.5V116.539H84C78.5019 116.539 73.8847 118.105 70.1182 121.22C66.3806 124.31 64.5 128.559 64.5 134.024C64.5 139.49 66.3806 143.738 70.1182 146.829C73.8847 149.944 78.5019 151.511 84 151.511H197.3V133.524H261.5V204.47H66.5C64.0825 204.47 62.5791 204.477 60.9238 205.273C59.2483 206.08 57.3756 207.718 54.3564 211.131C48.3222 217.952 37.9363 231.586 15.6533 258.929L14.623 260.193L14.7676 258.569C17.8365 224.051 20.9725 206.844 22.54 197.49C23.3278 192.79 23.7021 190.153 23.5068 188.3C23.3201 186.528 22.6113 185.47 21.0508 183.943L21.043 183.936C14.7322 177.496 9.69904 169.983 5.94238 161.403L5.93945 161.397C2.31254 152.807 0.5 143.681 0.5 134.024C0.50001 124.368 2.31253 115.242 5.93945 106.651L5.94238 106.646C9.69944 98.0647 14.7339 90.6176 21.0469 84.3096C27.4921 77.8695 35.0109 72.8382 43.5996 69.2168C52.1981 65.4579 61.3332 63.5791 71 63.5791H180.288C183.224 63.579 185.996 62.2216 187.795 59.9014L234.011 0.306641L234.898 0.698242Z" stroke="white"/>
</svg>
