<svg width="512" height="512" viewBox="0 0 512 512" fill="none" xmlns="http://www.w3.org/2000/svg">
<path d="M237.743 102.69C244.186 85.2781 268.814 85.2781 275.257 102.69L308.542 192.642C310.568 198.116 314.884 202.432 320.358 204.458L410.31 237.743C427.722 244.186 427.722 268.814 410.31 275.257L320.358 308.542C314.884 310.568 310.568 314.884 308.542 320.358L275.257 410.31C268.814 427.722 244.186 427.722 237.743 410.31L204.458 320.358C202.432 314.884 198.116 310.568 192.642 308.542L102.69 275.257C85.2781 268.814 85.2781 244.186 102.69 237.743L192.642 204.458C198.116 202.432 202.432 198.116 204.458 192.642L237.743 102.69ZM265.879 146.346C262.657 137.64 250.344 137.639 247.122 146.345L221.769 214.86C220.756 217.598 218.598 219.756 215.86 220.769L147.346 246.122C138.64 249.344 138.639 261.657 147.345 264.879L215.86 290.231C218.597 291.244 220.756 293.403 221.769 296.14L247.122 364.655C250.344 373.361 262.657 373.361 265.879 364.655L291.231 296.14C292.244 293.402 294.402 291.244 297.14 290.231L365.655 264.879C374.361 261.657 374.361 249.344 365.655 246.122L297.14 220.769C294.403 219.756 292.244 217.597 291.231 214.86L265.879 146.346Z" fill="black"/>
</svg>
